<svg xmlns="http://www.w3.org/2000/svg" width="1200" height="800" viewBox="0 0 1200 800">
        <rect width="1200" height="800" fill="#0f2b22"/>
        <circle cx="600" cy="350" r="245" fill="#1d1d1b" stroke="#d7a72d" stroke-width="22"/>
        <circle cx="440" cy="180" r="95" fill="#1d1d1b" stroke="#d7a72d" stroke-width="18"/>
        <circle cx="760" cy="180" r="95" fill="#1d1d1b" stroke="#d7a72d" stroke-width="18"/>
        <path d="M390 360 C410 230, 500 180, 600 180 C700 180, 790 230, 810 360 C830 520, 720 610, 600 620 C480 610, 370 520, 390 360Z" fill="#5a3b2d" stroke="#f1e8d0" stroke-width="14"/>
        <path d="M515 385 C555 355, 645 355, 685 385 C665 455, 535 455, 515 385Z" fill="#111"/>
        <circle cx="525" cy="315" r="25" fill="#f1e8d0"/>
        <circle cx="675" cy="315" r="25" fill="#f1e8d0"/>
        <path d="M480 490 C540 545, 660 545, 720 490" fill="none" stroke="#111" stroke-width="18" stroke-linecap="round"/>
        <text x="600" y="710" text-anchor="middle" font-family="Impact, Arial Black, sans-serif" font-size="82" fill="#d7a72d" stroke="#1d1d1b" stroke-width="4">RUSTY GRIZZLIES</text>
        </svg>