<svg xmlns="http://www.w3.org/2000/svg" width="1200" height="800" viewBox="0 0 1200 800">
        <rect width="1200" height="800" fill="#0f2b22"/>
        <path d="M285 450 C330 285, 470 230, 620 255 C770 280, 870 360, 925 500 C820 555, 680 575, 520 555 C410 542, 335 505, 285 450Z" fill="#5a3b2d" stroke="#d7a72d" stroke-width="18"/>
        <circle cx="805" cy="275" r="70" fill="#5a3b2d" stroke="#d7a72d" stroke-width="16"/>
        <circle cx="720" cy="270" r="52" fill="#5a3b2d" stroke="#d7a72d" stroke-width="14"/>
        <path d="M780 315 C840 325, 880 355, 910 395" fill="none" stroke="#111" stroke-width="18" stroke-linecap="round"/>
        <circle cx="835" cy="260" r="12" fill="#111"/>
        <path d="M380 535 L355 660 M555 555 L535 675 M725 555 L745 675 M850 520 L895 650" stroke="#111" stroke-width="26" stroke-linecap="round"/>
        <text x="600" y="115" text-anchor="middle" font-family="Impact, Arial Black, sans-serif" font-size="86" fill="#d7a72d" stroke="#1d1d1b" stroke-width="4">GRIZZLY BLADES</text>
        <text x="600" y="735" text-anchor="middle" font-family="Arial, sans-serif" font-size="38" fill="#f1e8d0">Full bear mark</text>
        </svg>